<svg width="84" height="80" viewBox="0 0 84 80" xmlns="http://www.w3.org/2000/svg">
<path d="M83.8959 76.183C83.8819 76.069 83.8509 75.959 83.7999 75.855C83.7889 75.834 83.7729 75.815 83.7609 75.795C83.7289 75.74 83.6989 75.684 83.6569 75.635L81.5319 73.229C81.1659 72.815 80.5339 72.777 80.1199 73.142C79.7059 73.508 79.6669 74.14 80.0319 74.554L80.6899 75.298H4.90588V3.55601L6.29588 4.81901C6.70488 5.19201 7.33888 5.16001 7.70888 4.75101C8.08088 4.34201 8.04988 3.70901 7.64088 3.33801L4.57788 0.557008C4.49188 0.479008 4.39288 0.423008 4.28888 0.380008C4.25888 0.368008 4.22888 0.361008 4.19888 0.352008C4.11488 0.327008 4.03088 0.312008 3.94388 0.308008C3.90988 0.307008 3.87888 0.305008 3.84488 0.307008C3.73588 0.313008 3.62888 0.334008 3.52488 0.377008C3.51888 0.379008 3.51288 0.379008 3.50788 0.381008C3.50588 0.382008 3.50388 0.382008 3.50088 0.383008C3.39088 0.432008 3.29688 0.504008 3.21388 0.585008C3.20488 0.594008 3.19288 0.597008 3.18388 0.606008L0.37088 3.54401C-0.0111203 3.94301 0.00287983 4.57601 0.40188 4.95801C0.59588 5.14401 0.84388 5.23601 1.09288 5.23601C1.35588 5.23601 1.61888 5.13201 1.81488 4.92701L2.90488 3.78801V76.298C2.90488 76.85 3.35288 77.298 3.90488 77.298H80.7739L80.1359 78.065C79.7819 78.49 79.8409 79.12 80.2649 79.473C80.4529 79.628 80.6789 79.704 80.9039 79.704C81.1909 79.704 81.4759 79.581 81.6739 79.343L83.6599 76.953L83.6619 76.951L83.6739 76.937C83.6809 76.929 83.6829 76.918 83.6889 76.909C83.7379 76.847 83.7839 76.783 83.8169 76.709C83.8289 76.684 83.8299 76.657 83.8389 76.631C83.8509 76.596 83.8599 76.563 83.8679 76.528C83.8889 76.441 83.8969 76.353 83.8939 76.265C83.8949 76.236 83.8979 76.21 83.8959 76.183Z" />
<path d="M9.30176 72.333H22.9688C23.5208 72.333 23.9688 71.885 23.9688 71.333V41.642C23.9688 41.09 23.5208 40.642 22.9688 40.642H9.30176C8.74976 40.642 8.30176 41.09 8.30176 41.642V71.333C8.30176 71.886 8.74976 72.333 9.30176 72.333ZM10.3018 42.642H21.9688V70.333H10.3018V42.642Z" />
<path d="M27.6357 27.226C27.0837 27.226 26.6357 27.674 26.6357 28.226V71.334C26.6357 71.886 27.0837 72.334 27.6357 72.334H41.3027C41.8547 72.334 42.3027 71.886 42.3027 71.334V28.226C42.3027 27.674 41.8547 27.226 41.3027 27.226H27.6357ZM40.3017 70.333H28.6357V29.226H40.3027V70.333H40.3017Z" />
<path d="M45.9688 33.784C45.4158 33.784 44.9688 34.232 44.9688 34.784V71.334C44.9688 71.886 45.4158 72.334 45.9688 72.334H59.6357C60.1887 72.334 60.6357 71.886 60.6357 71.334V34.784C60.6357 34.232 60.1887 33.784 59.6357 33.784H45.9688ZM58.6357 70.333H46.9688V35.783H58.6357V70.333Z" />
<path d="M63.3018 19.93V71.334C63.3018 71.886 63.7488 72.334 64.3018 72.334H77.9688C78.5218 72.334 78.9688 71.886 78.9688 71.334V19.93C78.9688 19.378 78.5218 18.93 77.9688 18.93H64.3018C63.7488 18.93 63.3018 19.377 63.3018 19.93ZM65.3018 20.93H76.9688V70.334H65.3018V20.93Z" />
<path d="M71.1358 6.86601C72.7898 6.86601 74.1358 5.52001 74.1358 3.86601C74.1358 2.21201 72.7898 0.866013 71.1358 0.866013C69.4818 0.866013 68.1358 2.21201 68.1358 3.86601C68.1358 4.16001 68.1918 4.43901 68.2708 4.70801L53.8978 20.547C53.5568 20.412 53.1888 20.333 52.8008 20.333C51.8318 20.333 50.9798 20.802 50.4308 21.516L37.3728 16.25C37.0508 14.941 35.8748 13.963 34.4678 13.963C32.8138 13.963 31.4678 15.309 31.4678 16.963C31.4678 17.176 31.4918 17.384 31.5338 17.585L17.5928 26.426C17.2668 26.304 16.9188 26.229 16.5508 26.229C14.8968 26.229 13.5508 27.575 13.5508 29.229C13.5508 30.883 14.8968 32.229 16.5508 32.229C18.2048 32.229 19.5508 30.883 19.5508 29.229C19.5508 28.707 19.4048 28.223 19.1698 27.795L32.5908 19.284C33.1068 19.702 33.7548 19.963 34.4678 19.963C35.6348 19.963 36.6378 19.286 37.1338 18.31L49.8098 23.422C49.8588 25.034 51.1768 26.333 52.8008 26.333C54.4548 26.333 55.8008 24.987 55.8008 23.333C55.8008 22.797 55.6488 22.301 55.4018 21.865L69.4708 6.36001C69.9478 6.67801 70.5208 6.86601 71.1358 6.86601ZM71.1358 2.86601C71.6878 2.86601 72.1358 3.31501 72.1358 3.86601C72.1358 4.41701 71.6878 4.86601 71.1358 4.86601C70.5838 4.86601 70.1358 4.41701 70.1358 3.86601C70.1358 3.31501 70.5838 2.86601 71.1358 2.86601ZM16.5518 30.228C16.0008 30.228 15.5518 29.779 15.5518 29.228C15.5518 28.677 16.0008 28.228 16.5518 28.228C17.1028 28.228 17.5518 28.677 17.5518 29.228C17.5518 29.779 17.1028 30.228 16.5518 30.228ZM34.4688 17.962C33.9178 17.962 33.4688 17.513 33.4688 16.962C33.4688 16.411 33.9178 15.962 34.4688 15.962C35.0198 15.962 35.4688 16.411 35.4688 16.962C35.4688 17.513 35.0198 17.962 34.4688 17.962ZM52.8018 24.333C52.2498 24.333 51.8018 23.884 51.8018 23.333C51.8018 22.782 52.2498 22.333 52.8018 22.333C53.3538 22.333 53.8018 22.782 53.8018 23.333C53.8018 23.884 53.3538 24.333 52.8018 24.333Z" />
</svg>
